<svg xmlns="http://www.w3.org/2000/svg" version="1.1" xmlns:xlink="http://www.w3.org/1999/xlink" xmlns:svgjs="http://svgjs.dev/svgjs" width="1920" height="1080" preserveAspectRatio="none" viewBox="0 0 1920 1080"><g mask="url(&quot;#SvgjsMask1049&quot;)" fill="none"><rect width="1920" height="1080" x="0" y="0" fill="rgba(245, 245, 245, 1)"></rect><path d="M0,533.386C97.87,523.3,172.142,449.831,254.32,395.73C335.505,342.282,420.915,296.866,478.362,218.46C545.202,127.235,618.831,25.136,608.357,-87.469C597.796,-201.009,511.831,-294.719,423.876,-367.291C344.079,-433.132,239.682,-449.38,139.318,-474.475C43.084,-498.537,-52.584,-529.607,-149.977,-510.774C-253.002,-490.852,-357.374,-448.357,-422.252,-365.883C-486.121,-284.692,-477.301,-172.921,-495.709,-71.272C-514.906,34.731,-571.914,142.93,-532.558,243.211C-492.827,344.448,-385.895,399.833,-290.397,451.867C-200.286,500.966,-102.078,543.906,0,533.386" fill="#9f9f9f"></path><path d="M1920 1712.137C2041.08 1721.109 2157.12 1673.126 2263.036 1613.774 2374.099 1551.538 2491.5969999999998 1480.955 2541.536 1363.846 2591.115 1247.5819999999999 2528.855 1118.985 2527.925 992.594 2526.808 840.855 2628.498 666.5699999999999 2535.5209999999997 546.648 2443.565 428.043 2250.247 487.908 2105.6059999999998 447.88300000000004 1964.034 408.70799999999997 1832.609 262.40999999999997 1695.109 314.09299999999996 1555.738 366.47900000000004 1540.07 557.855 1467.3600000000001 687.7850000000001 1410.689 789.053 1356.763 884.703 1315.164 993.038 1261.54 1132.688 1120.297 1280.924 1188.475 1414.076 1257.643 1549.162 1467.606 1507.979 1608.152 1565.245 1716.762 1609.498 1803.042 1703.47 1920 1712.137" fill="#ffffff"></path></g><defs><mask id="SvgjsMask1049"><rect width="1920" height="1080" fill="#ffffff"></rect></mask></defs></svg>