<svg xmlns="http://www.w3.org/2000/svg" version="1.1" xmlns:xlink="http://www.w3.org/1999/xlink" xmlns:svgjs="http://svgjs.dev/svgjs" width="1440" height="560" preserveAspectRatio="none" viewBox="0 0 1440 560"><g mask="url(&quot;#SvgjsMask1001&quot;)" fill="none"><rect width="1440" height="560" x="0" y="0" fill="rgba(245, 245, 245, 1)"></rect><path d="M -514.1517701982775,269 C -442.15,291.2 -298.15,397.2 -154.15177019827752,380 C -10.15,362.8 61.85,198.8 205.84822980172248,183 C 349.85,167.2 421.85,312.6 565.8482298017225,301 C 709.85,289.4 781.85,106.8 925.8482298017225,125 C 1069.85,143.2 1183.02,380.2 1285.8482298017225,392 C 1388.68,403.8 1409.17,225.6 1440,184" stroke="rgba(87, 87, 87, 0.42)" stroke-width="2"></path><path d="M -183.93260391925048,157 C -111.93,208.4 32.07,408 176.06739608074952,414 C 320.07,420 392.07,202.6 536.0673960807495,187 C 680.07,171.4 752.07,331.6 896.0673960807495,336 C 1040.07,340.4 1112.07,217.8 1256.0673960807494,209 C 1400.07,200.2 1579.28,291.2 1616.0673960807494,292 C 1652.85,292.8 1475.21,228.8 1440,213" stroke="rgba(87, 87, 87, 0.42)" stroke-width="2"></path><path d="M -716.7082188364791,336 C -644.71,319.6 -500.71,251.6 -356.70821883647903,254 C -212.71,256.4 -140.71,360 3.291781163520966,348 C 147.29,336 219.29,177 363.29178116352097,194 C 507.29,211 579.29,442.4 723.2917811635209,433 C 867.29,423.6 939.95,160 1083.291781163521,147 C 1226.63,134 1368.66,323.8 1440,368" stroke="rgba(87, 87, 87, 0.42)" stroke-width="2"></path><path d="M -12.09730673295661,400 C 59.9,350.4 203.9,171.8 347.9026932670434,152 C 491.9,132.2 563.9,282 707.9026932670433,301 C 851.9,320 923.9,247.6 1067.9026932670433,247 C 1211.9,246.4 1283.9,299.4 1427.9026932670433,298 C 1571.9,296.6 1785.48,222.4 1787.9026932670433,240 C 1790.32,257.6 1509.58,356.8 1440,386" stroke="rgba(87, 87, 87, 0.42)" stroke-width="2"></path></g><defs><mask id="SvgjsMask1001"><rect width="1440" height="560" fill="#ffffff"></rect></mask></defs></svg>