<svg xmlns="http://www.w3.org/2000/svg" version="1.1" xmlns:xlink="http://www.w3.org/1999/xlink" xmlns:svgjs="http://svgjs.dev/svgjs" width="1920" height="1080" preserveAspectRatio="none" viewBox="0 0 1920 1080"><g mask="url(&quot;#SvgjsMask1417&quot;)" fill="none"><rect width="1920" height="1080" x="0" y="0" fill="rgba(40, 61, 59, 1)"></rect><path d="M0,546.429C113.145,550.373,234.304,573.897,331.327,515.554C429.124,456.745,459.523,334.758,516.463,235.861C580.01,125.489,676.401,28.612,684.849,-98.466C694.077,-237.272,667.753,-395.876,564.672,-489.291C462.417,-581.957,303.288,-547.824,166.769,-567.964C51.029,-585.039,-59.1,-607.579,-175.742,-598.522C-318.761,-587.417,-503,-625.039,-587.843,-509.369C-674.487,-391.244,-558.403,-226.433,-556.107,-79.956C-554.276,36.879,-620.772,155.108,-575.737,262.93C-530.321,371.663,-422.524,440.908,-316.808,492.963C-218.742,541.252,-109.244,542.621,0,546.429" fill="#1e2e2c"></path><path d="M1920 1523.231C2001.287 1515.143 2063.068 1453.56 2129.735 1406.353 2193.324 1361.326 2253.562 1315.952 2300.526 1253.78 2357.96 1177.747 2430.593 1101.686 2431.849 1006.407 2433.15 907.7239999999999 2383.363 807.267 2307.241 744.454 2234.439 684.381 2125.526 714.114 2037.223 680.7760000000001 1938.255 643.412 1860.608 502.823 1760.911 538.194 1659.076 574.323 1685.516 735.313 1627.164 826.256 1580.59 898.843 1471.921 928.5219999999999 1456.069 1013.297 1440.196 1098.184 1508.384 1173.148 1547.945 1249.912 1585.571 1322.921 1615.4180000000001 1402.314 1681.6109999999999 1450.94 1749.914 1501.117 1835.663 1531.622 1920 1523.231" fill="#324c4a"></path></g><defs><mask id="SvgjsMask1417"><rect width="1920" height="1080" fill="#ffffff"></rect></mask></defs></svg>