<svg xmlns="http://www.w3.org/2000/svg" version="1.1" xmlns:xlink="http://www.w3.org/1999/xlink" xmlns:svgjs="http://svgjs.dev/svgjs" width="300" height="400" preserveAspectRatio="none" viewBox="0 0 300 400"><g mask="url(&quot;#SvgjsMask1122&quot;)" fill="none"><rect width="300" height="400" x="0" y="0" fill="rgba(40, 61, 59, 1)"></rect><path d="M19.69 -6.63L56.93 14.87L56.93 57.87L19.69 79.37L-17.55 57.87L-17.55 14.87zM56.93 57.87L94.17 79.37L94.17 122.37L56.93 143.87L19.69 122.37L19.69 79.37zM19.69 122.37L56.93 143.87L56.93 186.87L19.69 208.37L-17.55 186.87L-17.55 143.87zM56.93 186.87L94.17 208.37L94.17 251.37L56.93 272.87L19.69 251.37L19.69 208.37zM19.69 251.37L56.93 272.87L56.93 315.87L19.69 337.37L-17.55 315.87L-17.55 272.87zM56.93 315.87L94.17 337.37L94.17 380.37L56.93 401.87L19.69 380.37L19.69 337.37zM19.69 380.37L56.93 401.87L56.93 444.87L19.69 466.37L-17.55 444.87L-17.55 401.87zM131.41 57.87L168.65 79.37L168.65 122.37L131.41 143.87L94.17 122.37L94.17 79.37zM94.17 122.37L131.41 143.87L131.41 186.87L94.17 208.37L56.93 186.87L56.93 143.87zM205.89 57.87L243.13 79.37L243.13 122.37L205.89 143.87L168.65 122.37L168.65 79.37zM205.89 186.87L243.13 208.37L243.13 251.37L205.89 272.87L168.65 251.37L168.65 208.37zM168.65 251.37L205.89 272.87L205.89 315.87L168.65 337.37L131.41 315.87L131.41 272.87zM168.65 380.37L205.89 401.87L205.89 444.87L168.65 466.37L131.41 444.87L131.41 401.87zM243.13 -6.63L280.37 14.87L280.37 57.87L243.13 79.37L205.89 57.87L205.89 14.87zM280.37 57.87L317.61 79.37L317.61 122.37L280.37 143.87L243.13 122.37L243.13 79.37zM280.37 186.87L317.61 208.37L317.61 251.37L280.37 272.87L243.13 251.37L243.13 208.37zM280.37 315.87L317.61 337.37L317.61 380.37L280.37 401.87L243.13 380.37L243.13 337.37zM243.13 380.37L280.37 401.87L280.37 444.87L243.13 466.37L205.89 444.87L205.89 401.87zM317.61 122.37L354.85 143.87L354.85 186.87L317.61 208.37L280.37 186.87L280.37 143.87zM354.85 315.87L392.09 337.37L392.09 380.37L354.85 401.87L317.61 380.37L317.61 337.37z" stroke="rgba(25, 114, 120, 1)" stroke-width="2"></path></g><defs><mask id="SvgjsMask1122"><rect width="300" height="400" fill="#ffffff"></rect></mask></defs></svg>